<svg width="200" height="200" viewBox="0 0 200 200" fill="none" xmlns="http://www.w3.org/2000/svg">
<path d="M21.7416 52.2167C23.2666 50.1667 25.275 47.3917 26.8833 45.4083C31.7 39.9417 32.325 39.225 36.7083 35.1833C38.0083 34.1167 39.55 32.8333 41.0583 31.625C29.9333 41.0417 28.5166 51.4667 38.725 57.9083C38.7083 57.9083 38.7083 57.9083 38.7083 57.925C52.9833 66.525 84.2666 64.6667 108.95 53.65C132.858 42.9833 141.683 27.725 129.883 18.6583C119.525 16.7167 107.175 16.4917 94.1083 18.2417L92.75 16L93.875 12.2833C101.558 11.5917 108.858 11.7583 115.158 12.8333C116.683 13.0917 118.692 13.5333 120.192 13.85C123.092 14.5583 124.667 14.9833 126.558 15.5917C128.492 16.1667 130.142 16.7417 133.017 17.8083C135.833 18.9167 137.05 19.4167 139.308 20.5417C141.837 21.6955 144.295 23.0007 146.667 24.45C165.467 36.275 153.775 57.85 120.6 72.6333C87.5166 87.3667 45.3583 89.6833 26.4666 78C26.4583 77.9833 26.4333 77.9667 26.3833 77.95H26.4166C16.1 71.4167 15.0166 61.9333 21.7416 52.2167ZM107.817 134.883L107.55 121.6L98.1083 111.1C66.9166 118.167 36.2583 116.65 19.2083 106.608C19.15 106.542 19.0083 106.475 18.95 106.408C9.29997 100.467 6.91663 92.8 7.64163 84.4667C5.3833 96.6583 5.19997 101.058 5.52497 111.492C5.92497 118.025 9.69997 124.05 17.2916 128.8L17.35 128.867C35.525 140.167 73.3916 142.617 107.817 134.883ZM147.192 150.092C103.167 167.75 48.0666 168.792 24.1333 152.45C26.7179 158.766 30.2348 164.66 34.5666 169.933C56.5333 184.933 107.108 183.975 147.5 167.767C171.142 158.292 186.058 145.683 189.975 133.867L191.075 130.308C193.683 121.292 194.175 113.783 194.592 107.1C194.117 121.608 177.025 138.108 147.192 150.092ZM50.0083 184.1C51.3916 185.417 55.7416 190.758 77.7833 196.658C83.7416 197.975 98.7416 202.2 126.45 196.058L126.617 193.533L124.425 190.1C98.7166 196.183 70.1583 194.15 50.0083 184.1ZM113.625 79.025L137.033 96.7667C137.033 96.7667 142.042 100.375 137.317 102.908C132.608 105.417 120.517 111.558 120.517 111.558L108.575 107.1L102.583 109.767L113.15 118.942L113.233 133.217L119.442 130.458L123.558 118.4C123.558 118.4 136.2 113.533 141.217 111.7C146.258 109.908 145.583 116.042 145.583 116.042L143.1 145.3L151.35 141.633L164.933 102.158C164.933 102.158 172.133 98.6583 177.2 95.5833C182.258 92.5083 183.992 87.4083 183.992 87.4083C183.992 87.4083 179.058 85.2833 173.375 86.9917C167.692 88.6833 160.283 91.7 160.283 91.7L121.85 75.375L113.625 79.025ZM64.1 22.8917L79.9916 35.55L84.3333 34.9L75.6833 23.5417C75.6833 23.5417 73.8 21.1917 76.3333 20.6333C78.8833 20.0667 85.3333 18.75 85.3333 18.75L90.1833 22.625L93.45 22.1417L89.75 16.2583L91.7 9.73333L88.5416 10.1917L84.8 15.1583C84.8 15.1583 78.2333 15.775 75.65 15.9917C73.05 16.1917 74.1666 13.4 74.1666 13.4L79.15 0L74.7833 0.641667L63.2833 17.3833C63.2833 17.3833 59.45 18.0833 56.675 18.875C53.8916 19.6583 52.425 21.8083 52.425 21.8083C52.425 21.8083 54.4666 23.4583 57.3416 23.4C60.2416 23.3417 64.1 22.8917 64.1 22.8917ZM142.642 185.542L132.358 180.167L129.992 180.992L136.083 186.442C136.083 186.442 137.383 187.55 136.017 188.142C134.65 188.725 131.167 190.158 131.167 190.158L128.292 188.875L126.583 189.492L128.975 192.042L128.742 195.767L130.525 195.15L131.858 192.125C131.858 192.125 135.475 191.05 136.917 190.667C138.35 190.275 138.025 191.958 138.025 191.958L136.667 200L139.042 199.175L143.7 188.542C143.7 188.542 145.758 187.733 147.233 186.992C148.708 186.25 149.292 184.883 149.292 184.883C149.292 184.883 147.983 184.167 146.367 184.525C144.742 184.867 142.642 185.542 142.642 185.542Z" fill="white"/>
</svg>
