<svg width="21" height="19" viewBox="0 0 21 19" fill="none" xmlns="http://www.w3.org/2000/svg">
<path fill-rule="evenodd" clip-rule="evenodd" d="M9.5 1.75003C5.49594 1.75003 2.25 4.99597 2.25 9.00003C2.25 10.7632 2.87849 12.3777 3.92447 13.6345C4.08798 13.831 4.14017 14.0972 4.06294 14.3409L3.3245 16.6707L6.32803 15.7245C6.49239 15.6727 6.66957 15.6791 6.82976 15.7426C7.65514 16.0698 8.5556 16.25 9.5 16.25H11.5C15.5041 16.25 18.75 13.0041 18.75 9.00003C18.75 4.99597 15.5041 1.75003 11.5 1.75003H9.5ZM0.75 9.00003C0.75 4.16754 4.66751 0.250031 9.5 0.250031H11.5C16.3325 0.250031 20.25 4.16754 20.25 9.00003C20.25 13.8325 16.3325 17.75 11.5 17.75H9.5C8.45897 17.75 7.45896 17.5679 6.53108 17.2332L3.31646 18.2459C2.35115 18.55 1.4435 17.6408 1.74928 16.676L2.2381 16.831L1.74928 16.676L2.51265 14.2676C1.40646 12.8023 0.75 10.977 0.75 9.00003Z" fill="#7D848D"/>
</svg>
