<svg xmlns="http://www.w3.org/2000/svg" xmlns:xlink="http://www.w3.org/1999/xlink" xmlns:inkscape="http://www.inkscape.org/namespaces/inkscape" version="1.1" width="26" height="26" viewBox="0 0 26 26">
<path transform="matrix(1,0,0,-1,2.4375,24.645813)" d="M14.895834-.000021H6.229167C0-.000021 0 3.304146 0 6.229146V7.312479C0 9.728313 0 12.458313 5.145833 12.458313 6.435 12.458313 6.911667 12.144146 7.583333 11.645813 7.615834 11.613313 7.659167 11.591646 7.691668 11.548313L8.796667 10.378313C9.728333 9.392479 11.418333 9.392479 12.35 10.378313L13.455001 11.548313C13.4875 11.580812 13.520001 11.613313 13.563334 11.645813 14.235001 12.15498 14.711668 12.458313 16.000834 12.458313 21.146668 12.458313 21.146668 9.728313 21.146668 7.312479V6.229146C21.125002 2.090813 19.034169-.000021 14.895834-.000021ZM5.145833 10.833313C1.625 10.833313 1.625 9.728313 1.625 7.312479V6.229146C1.625 3.260813 1.625 1.624979 6.229167 1.624979H14.895834C18.124167 1.624979 19.5 3.000813 19.5 6.229146V7.312479C19.5 9.728313 19.5 10.833313 15.979167 10.833313 15.199167 10.833313 15.036667 10.735813 14.570833 10.389147L13.52 9.273314C12.74 8.44998 11.689167 7.994979 10.5625 7.994979 9.435834 7.994979 8.385001 8.44998 7.605001 9.273314L6.554167 10.389147C6.088334 10.735813 5.925834 10.833313 5.145833 10.833313Z" fill="#ffffff"/>
<path transform="matrix(1,0,0,-1,4.604126,13.8125)" d="M15.979167-.000021C15.535001-.000021 15.166667 .368313 15.166667 .812479V7.312479C15.166667 9.728313 15.166667 10.833313 11.645834 10.833313H5.145833C1.625 10.833313 1.625 9.728313 1.625 7.312479V.812479C1.625 .368313 1.256667-.000021 .8125-.000021 .368333-.000021 0 .368313 0 .812479V7.312479C0 9.728313 0 12.458313 5.145833 12.458313H11.645834C16.791668 12.458313 16.791668 9.728313 16.791668 7.312479V.812479C16.791668 .368313 16.423335-.000021 15.979167-.000021Z" fill="#ffffff"/>
<path transform="matrix(1,0,0,-1,10.616455,10.811646)" d="M4.42 0H.8125C.368333 0 0 .368333 0 .8125 0 1.256667 .368333 1.625 .8125 1.625H4.42C4.864166 1.625 5.2325 1.256667 5.2325 .8125 5.2325 .368333 4.875 0 4.42 0Z" fill="#ffffff"/>
<path transform="matrix(1,0,0,-1,9.717163,7.5616457)" d="M6.229134 0H.8125C.368333 0 0 .368333 0 .8125 0 1.256667 .368333 1.625 .8125 1.625H6.229134C6.673301 1.625 7.041634 1.256667 7.041634 .8125 7.041634 .368333 6.684134 0 6.229134 0Z" fill="#ffffff"/>
</svg>
