<svg width="44" height="44" viewBox="0 0 44 44" fill="none" xmlns="http://www.w3.org/2000/svg">
<circle cx="22" cy="22" r="22" fill="#03A9F4"/>
<path d="M17.5477 32C26.6048 32 31.5577 24.3062 31.5577 17.6344C31.5577 17.4159 31.5534 17.1984 31.5438 16.9818C32.5075 16.2668 33.3392 15.3815 34 14.3673C33.1177 14.7695 32.1683 15.0402 31.1724 15.1622C32.1889 14.5371 32.9694 13.5484 33.3376 12.3696C32.371 12.9576 31.3135 13.3721 30.2109 13.5952C29.3123 12.6138 28.0332 12 26.6166 12C23.8974 12 21.6924 14.2611 21.6924 17.0483C21.6924 17.4445 21.7356 17.8299 21.8201 18.1995C17.7277 17.9884 14.0988 15.9793 11.6702 12.9243C11.2327 13.6948 11.0026 14.5705 11.0034 15.462C11.0034 17.2137 11.8727 18.7601 13.1946 19.6647C12.4127 19.6403 11.6479 19.4237 10.9646 19.0332C10.9639 19.0545 10.9639 19.0751 10.9639 19.0977C10.9639 21.5429 12.6611 23.5845 14.9142 24.0471C14.4911 24.1653 14.0544 24.225 13.6158 24.2248C13.3052 24.2246 12.9953 24.1941 12.6904 24.1337C13.3173 26.1398 15.135 27.5997 17.2902 27.6404C15.6049 28.9949 13.4819 29.8016 11.1745 29.8016C10.7776 29.8016 10.3854 29.7785 10 29.7318C12.1792 31.164 14.7668 31.9998 17.548 31.9998" fill="white"/>
</svg>
